<svg xmlns="http://www.w3.org/2000/svg" viewBox="0 0 94 45" width="94" height="45" role="img" aria-label="Olive Hospitality">
  <g><g fill="#FFFFFF" fill-rule="nonzero">
        <path d="M6.49 29.539c.487.329.987.625 1.5.888.04.022.09.004.114-.035l3.17-5.591a7.998 7.998 0 0 1-1.639-.976l-3.173 5.596a.09.09 0 0 0 .028.118zM8.776 23.065a8.327 8.327 0 0 1-.66-.761l-4.488 4.569a.09.09 0 0 0-.005.12 14.087 14.087 0 0 0 1.224 1.252c.034.031.086.029.118-.004l4.485-4.565a8.908 8.908 0 0 1-.676-.614l.002.003zM2.484 25.347l5.493-3.227a8.196 8.196 0 0 1-.94-1.68L1.54 23.67a.092.092 0 0 0-.034.116c.254.524.543 1.037.861 1.532.026.04.078.05.117.029zM11.684 31.63l1.64-6.23a7.974 7.974 0 0 1-1.834-.507L9.85 31.128a.089.089 0 0 0 .056.108c.551.186 1.11.34 1.676.458.045.009.09-.02.1-.063h.003zM13.642 31.973a14.3 14.3 0 0 0 1.734.002.088.088 0 0 0 .082-.088v-6.45a8.08 8.08 0 0 1-1.898-.005v6.453c0 .046.037.085.082.088zM8.156 12.063A8.1 8.1 0 0 1 9.5 10.7L5.013 6.134a.086.086 0 0 0-.119-.004 14.29 14.29 0 0 0-1.228 1.248.09.09 0 0 0 .005.12l4.485 4.565zM24.193 28.267a14.435 14.435 0 0 0 1.226-1.25.09.09 0 0 0-.004-.12l-4.488-4.567c-.198.254-.409.502-.64.737a8.22 8.22 0 0 1-.697.631l4.485 4.565a.086.086 0 0 0 .118.004zM1.573 10.677l5.495 3.23c.25-.583.566-1.145.954-1.67l-5.497-3.23a.086.086 0 0 0-.117.028 14.305 14.305 0 0 0-.87 1.528.09.09 0 0 0 .035.116v-.002zM6.471 18.357.345 20.028a.09.09 0 0 0-.063.103c.114.577.26 1.147.442 1.708.015.044.06.07.105.057l6.122-1.67a8.426 8.426 0 0 1-.48-1.87v.001zM17.44 31.703a13.927 13.927 0 0 0 1.676-.454.089.089 0 0 0 .056-.107l-1.642-6.234a8.094 8.094 0 0 1-1.833.498l1.642 6.233a.087.087 0 0 0 .1.064zM.362 14.306l6.122 1.668c.093-.636.258-1.26.498-1.863L.855 12.44a.086.086 0 0 0-.105.057c-.183.561-.334 1.13-.45 1.706a.09.09 0 0 0 .062.103zM6.456 16.198H.114a.088.088 0 0 0-.086.083 15.076 15.076 0 0 0-.004 1.765c.002.046.04.083.086.083h6.335a8.395 8.395 0 0 1 .011-1.931zM17.754 24.814l3.173 5.593c.024.04.074.057.115.035.514-.26 1.014-.557 1.501-.883a.09.09 0 0 0 .028-.119l-3.173-5.593a8.085 8.085 0 0 1-1.644.967zM15.096 8.947V2.51a.086.086 0 0 0-.08-.085 13.539 13.539 0 0 0-.943 0c-.045 0-.08.04-.08.085v6.435a8.448 8.448 0 0 1 1.105 0l-.002.002zM29.057 16.715a.083.083 0 0 0-.084-.08H22.65c.025.374.025.749 0 1.124h6.322a.085.085 0 0 0 .084-.081c.01-.32.01-.64 0-.96l.002-.003zM21.839 13.558l5.482-3.22a.086.086 0 0 0 .032-.115c-.148-.28-.306-.559-.472-.833a.082.082 0 0 0-.112-.028l-5.482 3.22c.21.314.392.64.554.974l-.002.002zM20.288 11.35c.131.134.256.272.377.412l4.476-4.555a.082.082 0 0 0 0-.117c-.108-.116-.215-.232-.327-.346a12.187 12.187 0 0 0-.34-.333.082.082 0 0 0-.115 0l-4.476 4.556c.138.122.273.25.405.383zM18.812 3.153a.086.086 0 0 0-.056-.103 14.4 14.4 0 0 0-.913-.248.083.083 0 0 0-.1.061l-1.637 6.218c.36.072.718.169 1.069.292l1.637-6.22zM19.073 10.335l3.164-5.58a.085.085 0 0 0-.028-.114c-.27-.17-.54-.33-.818-.48-.04-.022-.089-.006-.112.033l-3.165 5.58a8 8 0 0 1 .957.563l.002-.002zM10.006 10.322c.31-.21.629-.397.959-.561L7.798 4.18a.083.083 0 0 0-.112-.033c-.278.15-.55.31-.819.48a.085.085 0 0 0-.028.114l3.165 5.58h.002zM11.908 9.366c.351-.12.707-.22 1.069-.29L11.339 2.86a.085.085 0 0 0-.099-.061c-.306.072-.611.153-.913.245a.084.084 0 0 0-.056.103l1.637 6.218v.002zM22.517 15.604l6.11-1.667c.042-.01.068-.057.06-.1-.071-.312-.153-.62-.244-.93a.084.084 0 0 0-.101-.057l-6.111 1.666c.12.358.215.72.286 1.085v.003zM28.63 20.456l-6.108-1.667c-.07.366-.166.73-.285 1.088l6.11 1.666a.084.084 0 0 0 .1-.057c.091-.307.173-.618.242-.93a.085.085 0 0 0-.06-.1h.002zM27.33 24.062l-5.483-3.223c-.16.336-.342.66-.551.976l5.482 3.22a.082.082 0 0 0 .112-.028c.166-.274.323-.55.472-.833a.087.087 0 0 0-.032-.114v.002z"/>
        <g>
            <path d="M88.328 25.119a.144.144 0 0 0-.183 0c-1.146.92-2.55 1.388-4.188 1.388-2.79 0-4.976-1.349-5.852-3.607l-.1-.25H93.777C94 21.666 94 20.6 94 20.504 94 13.742 89.53 9.02 83.13 9.02c-6.4 0-11.02 4.782-11.02 11.37 0 6.588 4.825 11.407 11.733 11.407 3.52 0 6.43-1.188 8.436-3.431a1010.338 1010.338 0 0 1-3.953-3.245l.002-.002zM78.06 17.693c.759-2.192 2.654-3.499 5.073-3.499 2.42 0 4.313 1.307 5.071 3.5l.084.242H77.973l.084-.243h.002zM37.57.855l-5.355 1.272a.15.15 0 0 0-.114.144v29.303h5.646V1a.145.145 0 0 0-.177-.145zM46.818 9.22H41.83c-.18 0-.33.148-.33.335v22.019h5.647V9.554a.333.333 0 0 0-.33-.335zM44.326 0c-1.941 0-3.464 1.513-3.464 3.447 0 1.933 1.523 3.409 3.464 3.409 1.94 0 3.461-1.5 3.461-3.486 0-1.987-1.52-3.37-3.461-3.37zM67.429 9.22a.318.318 0 0 0-.293.194l-6.833 15.891-5.74-15.89a.295.295 0 0 0-.281-.196h-5.547l8.078 22.355h6.553L72.98 9.219H67.429z"/>
        </g>
    </g></g>
  <text x="47" y="42.2" fill="#FFFFFF" text-anchor="middle"
        font-family="Arial, Helvetica, sans-serif" font-size="6.1" font-weight="300"
        letter-spacing="2.35" style="letter-spacing:2.35px">HOSPITALITY</text>
</svg>