<?xml version="1.0" standalone="no"?>
<!DOCTYPE svg PUBLIC "-//W3C//DTD SVG 1.1//EN" "http://www.w3.org/Graphics/SVG/1.1/DTD/svg11.dtd">
<svg xmlns="http://www.w3.org/2000/svg" id="Layer_1" data-name="Layer 1" viewBox="0 0 500 500" width="500" height="500">
  <defs>
    <style>
      .cls-1 {
        fill: #512875;
      }

      .cls-1, .cls-2 {
        stroke-width: 0px;
      }

      .cls-2 {
        fill: #fff;
      }
    </style>
  </defs>
  <g>
    <path class="cls-1" d="M162.97,348.98c3.97,2.64,8.06,5.01,12.26,7.12.34.17.75.04.93-.28l25.67-44.46c.13-.23.04-.52-.2-.62-4.38-1.95-8.59-4.39-12.55-7.33-.21-.16-.51-.1-.64.13l-25.68,44.49c-.19.32-.09.74.22.95Z"/>
    <path class="cls-1" d="M181.66,297.02c-1.83-1.83-3.51-3.74-5.08-5.72-.16-.21-.47-.23-.66-.04l-36.32,36.32c-.26.26-.28.69-.03.97,1.64,1.85,3.33,3.67,5.11,5.45,1.6,1.6,3.23,3.13,4.89,4.61.28.25.71.24.97-.03l36.29-36.29c.19-.19.17-.49-.03-.65-1.77-1.44-3.49-2.97-5.14-4.62Z"/>
    <path class="cls-1" d="M130.25,315.33l44.45-25.66c.23-.13.29-.43.13-.64-2.9-3.99-5.29-8.23-7.19-12.63-.1-.24-.39-.34-.62-.21l-44.48,25.68c-.32.19-.45.59-.28.93,2.08,4.21,4.43,8.32,7.04,12.3.21.31.62.41.95.23Z"/>
    <path class="cls-1" d="M205.42,365.77l13.27-49.54c.07-.25-.1-.51-.36-.55-4.77-.75-9.48-2.01-14.02-3.8-.25-.1-.52.04-.59.29l-13.28,49.57c-.1.36.11.74.46.86,4.5,1.5,9.07,2.73,13.69,3.68.37.08.73-.15.83-.51Z"/>
    <path class="cls-1" d="M221.42,368.52c4.72.29,9.45.29,14.18.02.37-.02.67-.33.67-.71v-51.29c0-.26-.23-.46-.49-.44-4.83.52-9.7.5-14.53-.04-.26-.03-.49.17-.49.44v51.31c0,.37.29.69.67.71Z"/>
    <path class="cls-1" d="M176.23,208.34c.19.19.49.17.65-.04,1.48-1.84,3.06-3.62,4.77-5.33,1.77-1.77,3.62-3.4,5.53-4.93.21-.16.22-.47.04-.66l-36.31-36.31c-.26-.26-.69-.28-.97-.03-1.79,1.59-3.55,3.23-5.26,4.94-1.65,1.65-3.24,3.35-4.77,5.07-.25.28-.23.71.03.97l36.3,36.3Z"/>
    <path class="cls-1" d="M307.61,338.78c1.73-1.53,3.42-3.12,5.07-4.77,1.71-1.71,3.36-3.47,4.94-5.26.25-.28.23-.71-.03-.97l-36.31-36.31c-.19-.19-.49-.17-.66.04-1.53,1.91-3.16,3.76-4.93,5.53-1.71,1.71-3.49,3.29-5.33,4.77-.2.17-.22.47-.04.65l36.3,36.3c.26.26.69.28.97.03Z"/>
    <path class="cls-1" d="M122.8,197.58l44.46,25.67c.23.13.52.04.62-.2,1.94-4.38,4.37-8.6,7.31-12.56.16-.21.1-.51-.13-.64l-44.48-25.68c-.32-.19-.74-.09-.95.22-2.63,3.97-5.01,8.07-7.11,12.26-.17.34-.04.75.28.93Z"/>
    <path class="cls-1" d="M162.35,259.35l-49.58,13.28c-.36.1-.59.46-.51.82.92,4.62,2.13,9.2,3.61,13.71.12.36.5.56.86.46l49.55-13.28c.25-.07.39-.34.3-.58-1.74-4.56-2.97-9.28-3.68-14.06-.04-.26-.29-.43-.55-.36Z"/>
    <path class="cls-1" d="M252.44,366.36c4.62-.94,9.2-2.15,13.7-3.64.36-.12.56-.5.46-.86l-13.28-49.56c-.07-.25-.34-.39-.59-.3-4.56,1.77-9.26,3.02-14.04,3.74-.26.04-.43.29-.36.55l13.28,49.55c.1.36.46.59.83.51Z"/>
    <path class="cls-1" d="M112.91,226.7l49.54,13.27c.25.07.51-.1.55-.36.75-4.77,2.02-9.48,3.81-14.02.1-.25-.04-.52-.29-.59l-49.58-13.28c-.36-.1-.74.1-.86.46-1.5,4.5-2.73,9.07-3.68,13.69-.08.37.15.73.51.83Z"/>
    <path class="cls-1" d="M162.2,241.89h-51.32c-.37,0-.69.29-.71.67-.29,4.72-.3,9.45-.04,14.18.02.38.33.67.71.67h51.28c.26,0,.46-.23.44-.49-.5-4.83-.48-9.7.08-14.53.03-.26-.17-.49-.44-.49Z"/>
    <path class="cls-1" d="M255.25,311.49l25.68,44.47c.19.32.6.45.93.28,4.2-2.1,8.3-4.47,12.27-7.09.31-.21.41-.62.22-.95l-25.68-44.47c-.13-.23-.43-.29-.64-.13-3.97,2.92-8.19,5.34-12.58,7.27-.24.11-.34.39-.2.62Z"/>
    <path class="cls-1" d="M233.28,183.22v-51.21c0-.37-.29-.67-.66-.68-2.57-.08-5.15-.09-7.72,0-.37.01-.66.31-.66.68v51.2c0,.25.21.45.46.43,2.7-.16,5.41-.16,8.11.01.25.02.46-.18.46-.43Z"/>
    <path class="cls-1" d="M347.34,246.05c-.01-.37-.31-.66-.68-.66h-51.21c-.25,0-.45.21-.43.46.17,2.7.17,5.41.01,8.11-.01.25.18.46.43.46h51.2c.37,0,.67-.29.68-.66.08-2.57.08-5.15,0-7.72Z"/>
    <path class="cls-1" d="M288.77,220.48l44.39-25.63c.32-.18.43-.59.26-.91-1.21-2.26-2.5-4.49-3.86-6.68-.19-.31-.6-.41-.92-.23l-44.39,25.63c-.22.13-.28.41-.14.62,1.51,2.27,2.86,4.62,4.06,7.02.11.22.39.31.61.18Z"/>
    <path class="cls-1" d="M275.7,202.98c.96.96,1.88,1.96,2.77,2.96.17.19.46.2.63.02l36.25-36.25c.26-.26.27-.67.02-.94-.88-.94-1.77-1.87-2.68-2.78-.91-.91-1.84-1.8-2.78-2.68-.27-.25-.68-.24-.94.02l-36.25,36.25c-.18.18-.17.47.02.63,1.01.89,2,1.8,2.96,2.77Z"/>
    <path class="cls-1" d="M263.65,137.18c.09-.35-.11-.72-.46-.83-2.47-.74-4.95-1.41-7.46-1.99-.36-.08-.71.13-.81.49l-13.25,49.46c-.06.24.09.49.33.54,2.64.54,5.26,1.24,7.83,2.1.24.08.49-.06.56-.3l13.26-49.48Z"/>
    <path class="cls-1" d="M266.02,194.42l25.63-44.39c.18-.32.08-.72-.23-.92-2.19-1.36-4.42-2.65-6.68-3.86-.32-.17-.72-.06-.91.26l-25.63,44.39c-.13.22-.04.49.18.61,2.4,1.2,4.75,2.55,7.02,4.05.21.14.49.07.62-.14Z"/>
    <path class="cls-1" d="M192.08,194.48c2.28-1.5,4.62-2.84,7.03-4.04.23-.11.31-.39.18-.61l-25.63-44.4c-.18-.32-.58-.43-.91-.26-2.26,1.21-4.49,2.49-6.69,3.85-.31.19-.41.6-.23.92l25.63,44.39c.13.22.41.28.62.14Z"/>
    <path class="cls-1" d="M207.69,186.9c2.58-.86,5.19-1.56,7.83-2.09.25-.05.4-.29.33-.54l-13.25-49.46c-.09-.35-.45-.57-.81-.49-2.5.58-4.99,1.24-7.46,1.98-.35.11-.55.47-.46.83l13.26,49.47c.06.24.32.38.56.3Z"/>
    <path class="cls-1" d="M294.36,237.01l49.46-13.25c.35-.09.57-.45.49-.81-.58-2.5-1.24-4.99-1.99-7.46-.11-.35-.47-.55-.83-.46l-49.48,13.26c-.24.07-.38.32-.3.56.86,2.57,1.57,5.19,2.1,7.83.05.25.29.4.54.33Z"/>
    <path class="cls-1" d="M343.87,276.08l-49.46-13.25c-.24-.07-.49.09-.54.33-.53,2.64-1.23,5.26-2.09,7.83-.08.24.06.49.3.56l49.47,13.26c.35.09.72-.11.83-.46.74-2.47,1.4-4.96,1.98-7.46.08-.36-.13-.71-.49-.81Z"/>
    <path class="cls-1" d="M333.24,305.01l-44.4-25.63c-.22-.13-.49-.04-.61.18-1.19,2.4-2.53,4.75-4.04,7.03-.14.21-.07.49.14.62l44.39,25.63c.32.18.72.08.92-.23,1.36-2.2,2.65-4.43,3.85-6.69.17-.32.05-.72-.26-.91Z"/>
  </g>
  <g>
    <path class="cls-2" d="M153.14,213.23c-19.94,0-34.97,14.47-34.97,33.66s15.03,33.66,34.97,33.66,34.79-14.47,34.79-33.66-14.96-33.66-34.79-33.66ZM153.14,268.03c-12.46,0-21.5-8.89-21.5-21.14s9.04-21.15,21.5-21.15,21.32,8.89,21.32,21.15-8.96,21.14-21.32,21.14Z"/>
    <path class="cls-2" d="M325.98,265.39c-.12-.1-.3-.1-.42,0-2.67,2.1-5.93,3.17-9.74,3.17-6.48,0-11.57-3.08-13.61-8.24l-.23-.57h34.53s2.15,0,2.15,0c.52-2.25.52-4.69.52-4.91,0-15.45-10.39-26.24-25.28-26.24s-25.63,10.93-25.63,25.98,11.22,26.06,27.29,26.06c8.19,0,14.95-2.72,19.62-7.84-3.48-2.78-7.4-5.96-9.19-7.41ZM302.1,248.42c1.76-5.01,6.17-8,11.8-8s10.03,2.99,11.79,8l.2.56h-23.99l.2-.56Z"/>
    <path class="cls-2" d="M207.63,210.3c-2.2.51-12.45,2.55-12.45,2.55-.15.04-.26.17-.26.33v66.95h13.13v-69.51c0-.22-.2-.38-.41-.33Z"/>
    <path class="cls-2" d="M229.14,229.06h-11.6c-.42,0-.77.34-.77.77v50.31h13.13v-50.31c0-.42-.34-.77-.77-.77Z"/>
    <path class="cls-2" d="M223.34,208c-4.51,0-8.05,3.46-8.05,7.87s3.54,7.79,8.05,7.79,8.05-3.42,8.05-7.96-3.54-7.7-8.05-7.7Z"/>
    <path class="cls-2" d="M277.38,229.06c-.3,0-.56.18-.68.45l-15.89,36.31-13.35-36.31c-.1-.27-.36-.45-.65-.45h-12.9l18.78,51.08h15.24l22.35-51.08h-12.9Z"/>
  </g>
  <g>
    <path class="cls-2" d="M42.37,241.78h18.67v2.87c-3.32-.85-5.4-1.39-7.3-1.39h-.28v18.2c0,2.24.16,3.35,1.36,4.11v.13h-6.25v-.13c1.2-.76,1.39-1.86,1.39-4.11v-18.2h-.25c-1.89,0-4.01.54-7.33,1.39v-2.87Z"/>
    <path class="cls-2" d="M62.75,265.57c1.23-.76,1.39-1.86,1.39-4.11v-15.45c0-2.37-.16-3.35-1.39-4.14v-.09h6.32v.09c-1.23.79-1.39,1.77-1.39,4.14v6.44h11.5v-6.44c0-2.37-.16-3.35-1.39-4.14v-.09h6.29v.09c-1.2.79-1.39,1.77-1.39,4.14v15.45c0,2.24.19,3.35,1.39,4.11v.13h-6.29v-.13c1.23-.76,1.39-1.86,1.39-4.11v-7.39h-11.5v7.39c0,2.24.16,3.35,1.39,4.11v.13h-6.32v-.13Z"/>
    <path class="cls-2" d="M87.1,265.57c1.23-.76,1.39-1.86,1.39-4.11v-15.45c0-2.37-.16-3.35-1.39-4.14v-.09h15.45v2.84c-3.41-.85-5.56-1.3-7.46-1.3h-3.06v9.1h1.9c1.8,0,4.42-.09,7.01-.19v1.9c-2.59-.13-5.21-.19-7.01-.19h-1.9v10.17h3.63c2.18-.03,4.58-.57,7.49-1.45v3.03h-16.05v-.13Z"/>
  </g>
  <g>
    <path class="cls-2" d="M354.36,265.57c1.23-.76,1.39-1.86,1.39-4.11v-15.45c0-2.37-.16-3.35-1.39-4.14v-.09h6.32v.09c-1.23.79-1.39,1.77-1.39,4.14v6.44h11.5v-6.44c0-2.37-.16-3.35-1.39-4.14v-.09h6.29v.09c-1.2.79-1.39,1.77-1.39,4.14v15.45c0,2.24.19,3.35,1.39,4.11v.13h-6.29v-.13c1.23-.76,1.39-1.86,1.39-4.11v-7.39h-11.5v7.39c0,2.24.16,3.35,1.39,4.11v.13h-6.32v-.13Z"/>
    <path class="cls-2" d="M377.89,253.79c0-7.39,5.21-12.38,12.83-12.38s12.76,4.99,12.76,12.42-5.21,12.38-12.76,12.38-12.83-5.02-12.83-12.42ZM390.72,264.56c5.59,0,9.07-4.45,9.07-10.77s-3.47-10.71-9.07-10.71-9.1,4.42-9.1,10.74,3.47,10.74,9.1,10.74Z"/>
    <path class="cls-2" d="M403.23,241.78h18.67v2.87c-3.32-.85-5.4-1.39-7.3-1.39h-.28v18.2c0,2.24.16,3.35,1.36,4.11v.13h-6.26v-.13c1.2-.76,1.39-1.86,1.39-4.11v-18.2h-.25c-1.9,0-4.01.54-7.33,1.39v-2.87Z"/>
    <path class="cls-2" d="M423.6,265.57c1.23-.76,1.39-1.86,1.39-4.11v-15.45c0-2.37-.16-3.35-1.39-4.14v-.09h15.45v2.84c-3.41-.85-5.56-1.3-7.46-1.3h-3.06v9.1h1.89c1.8,0,4.42-.09,7.01-.19v1.9c-2.59-.13-5.21-.19-7.01-.19h-1.89v10.17h3.63c2.18-.03,4.58-.57,7.49-1.45v3.03h-16.05v-.13Z"/>
    <path class="cls-2" d="M441.67,265.57c1.23-.76,1.39-1.86,1.39-4.11v-15.45c0-2.37-.16-3.35-1.39-4.14v-.09h6.29v.09c-1.2.79-1.36,1.77-1.36,4.14v18.04h3.25c2.31,0,4.77-.57,7.77-1.45v3.1h-15.95v-.13Z"/>
  </g>
</svg>